<svg xmlns="http://www.w3.org/2000/svg" width="400" height="300" viewBox="0 0 400 300"><rect width="400" height="300" fill="#d4a017"/><rect y="220" width="400" height="80" fill="#b8860b"/><polygon points="200,40 160,180 240,180" fill="#e67e22"/><polygon points="200,60 170,170 230,170" fill="#f39c12"/><rect x="160" y="100" width="80" height="60" fill="#1a1a2e" rx="5"/><rect x="175" y="110" width="50" height="15" fill="#f4d03f" rx="2"/><rect x="175" y="130" width="50" height="15" fill="#f4d03f" rx="2"/><rect x="110" y="140" width="50" height="80" fill="#e74c3c" rx="3"/><rect x="240" y="140" width="50" height="80" fill="#e74c3c" rx="3"/><polygon points="110,140 135,110 160,140" fill="#e74c3c"/><polygon points="240,140 265,110 290,140" fill="#e74c3c"/><text x="200" y="270" text-anchor="middle" fill="white" font-size="28" font-weight="bold" font-family="Arial">Bangkok</text><text x="200" y="290" text-anchor="middle" fill="rgba(255,255,255,0.7)" font-size="14" font-family="Arial">Thailand</text></svg>
